<svg xmlns="http://www.w3.org/2000/svg" xmlns:xlink="http://www.w3.org/1999/xlink" xmlns:lucid="lucid" width="2847.68" height="2724.86"><g transform="translate(-954.6285150963947 -1461.5765458765193)" lucid:page-tab-id="0_0"><path d="M500 1000h3500v3500H500z" fill="#f2f3f5"/><path d="M1548.72 3764.87a6 6 0 0 1 6-6h2168.94a6 6 0 0 0 6-6v-17.25a2.3 2.3 0 0 1 4.02-1.54l44.6 49.58a6.67 6.67 0 0 1 0 8.9l-44.6 49.6a2.3 2.3 0 0 1-4.02-1.55v-17.24a6 6 0 0 0-6-6H1554.72a6 6 0 0 1-6-6zM1423.87 3694.8a6 6 0 0 1-6-6V1542.17a6 6 0 0 0-6-6h-18.33a2.3 2.3 0 0 1-1.54-4.02l51.75-46.57a6.67 6.67 0 0 1 8.92 0l51.74 46.56a2.3 2.3 0 0 1-1.53 4.02h-18.33a6 6 0 0 0-6 6v2146.6a6 6 0 0 1-6 6z" stroke="#333" stroke-width="3" fill="#333"/><path d="M2534.37 4068.43a6 6 0 0 1 6-6h226.45a6 6 0 0 1 6 6v92a6 6 0 0 1-6 6h-226.45a6 6 0 0 1-6-6z" fill="none"/><use xlink:href="#a" transform="matrix(1,0,0,1,2546.3674659677513,4074.425360951416) translate(0 53.833333333333336)"/><path d="M980.63 2772.04a6 6 0 0 1-6-6v-355.7a6 6 0 0 1 6-6h92a6 6 0 0 1 6 6v355.7a6 6 0 0 1-6 6z" fill="none"/><use xlink:href="#b" transform="matrix(6.123233995736766e-17,-1,1,6.123233995736766e-17,986.6285150963947,2760.042548384402) translate(0 53.833333333333336)"/><path d="M1115.25 3429.1a6 6 0 0 1 6-6h220.44a6 6 0 0 1 6 6v89.45a6 6 0 0 1-6 6h-220.45a6 6 0 0 1-6-6z" fill="none"/><use xlink:href="#c" transform="matrix(1,0,0,1,1127.2529616354052,3435.093242419594) translate(0 45.22222222222222)"/><use xlink:href="#d" transform="matrix(1,0,0,1,1127.2529616354052,3435.093242419594) translate(94.80246913580248 45.22222222222222)"/><path d="M1201.34 2987.14a6 6 0 0 1 6-6h134.35a6 6 0 0 1 6 6v89.46a6 6 0 0 1-6 6h-134.36a6 6 0 0 1-6-6z" fill="none"/><use xlink:href="#e" transform="matrix(1,0,0,1,1213.3401801655161,2993.1437065976465) translate(0 45.22222222222222)"/><path d="M1201.34 2545.2a6 6 0 0 1 6-6h143.2a6 6 0 0 1 6 6v89.45a6 6 0 0 1-6 6h-143.2a6 6 0 0 1-6-6z" fill="none"/><use xlink:href="#f" transform="matrix(1,0,0,1,1213.3401801655161,2551.1941707756996) translate(0 45.22222222222222)"/><path d="M1230.12 2103.24a6 6 0 0 1 6-6h105.57a6 6 0 0 1 6 6v89.46a6 6 0 0 1-6 6H1236.1a6 6 0 0 1-6-6z" fill="none"/><use xlink:href="#g" transform="matrix(1,0,0,1,1242.121708041446,2109.2446349537527) translate(0 45.22222222222222)"/><path d="M1148.23 1661.3a6 6 0 0 1 6-6h187.46a6 6 0 0 1 6 6v89.45a6 6 0 0 1-6 6h-187.47a6 6 0 0 1-6-6z" fill="none"/><use xlink:href="#c" transform="matrix(1,0,0,1,1160.2351258515796,1667.2950991318048) translate(0 45.22222222222222)"/><use xlink:href="#h" transform="matrix(1,0,0,1,1160.2351258515796,1667.2950991318048) translate(94.80246913580248 45.22222222222222)"/><path d="M1708.8 3887.43a6 6 0 0 1 6-6h109.8a6 6 0 0 1 6 6v79.84a6 6 0 0 1-6 6h-109.8a6 6 0 0 1-6-6z" fill="none"/><use xlink:href="#i" transform="matrix(1,0,0,1,1720.7912977332612,3893.434722154902) translate(8.29629629629629 40.22222222222222)"/><path d="M2138.47 3887.43a6 6 0 0 1 6-6h134.35a6 6 0 0 1 6 6v89.46a6 6 0 0 1-6 6h-134.35a6 6 0 0 1-6-6z" fill="none"/><use xlink:href="#j" transform="matrix(1,0,0,1,2150.4685782324377,3893.434722154902) translate(22.74074074074074 45.22222222222222)"/><path d="M2576 3887.43a6 6 0 0 1 6-6h143.2a6 6 0 0 1 6 6v89.46a6 6 0 0 1-6 6H2582a6 6 0 0 1-6-6z" fill="none"/><use xlink:href="#f" transform="matrix(1,0,0,1,2587.997095597381,3893.434722154902) translate(0 45.22222222222222)"/><path d="M3036.76 3887.43a6 6 0 0 1 6-6h105.57a6 6 0 0 1 6 6v89.46a6 6 0 0 1-6 6h-105.57a6 6 0 0 1-6-6z" fill="none"/><use xlink:href="#k" transform="matrix(1,0,0,1,3048.7584138142975,3893.434722154902) translate(8.24074074074074 45.22222222222222)"/><path d="M3437.76 3887.43a6 6 0 0 1 6-6h187.46a6 6 0 0 1 6 6v89.46a6 6 0 0 1-6 6h-187.45a6 6 0 0 1-6-6z" fill="none"/><use xlink:href="#l" transform="matrix(1,0,0,1,3449.7646585413117,3893.434722154902) translate(30.185185185185183 45.22222222222222)"/><path d="M1548.72 1485.05h441.95V1927h-441.95z" stroke="#000" stroke-opacity="0" stroke-width="3" fill="#dfe3e8"/><path d="M1990.67 1485.05h441.95V1927h-441.95z" stroke="#000" stroke-opacity="0" stroke-width="3" fill="#ffd9d9"/><path d="M1548.72 1927h441.95v441.95h-441.95z" stroke="#000" stroke-opacity="0" stroke-width="3" fill="#cfe4ff" fill-opacity=".45"/><path d="M1990.67 1927h441.95v441.95h-441.95z" stroke="#000" stroke-opacity="0" stroke-width="3" fill="#dfe3e8"/><path d="M2432.62 1485.05h441.95V1927h-441.95z" stroke="#000" stroke-opacity="0" stroke-width="3" fill="#fe7070"/><path d="M2874.57 1485.05h441.95V1927h-441.95z" stroke="#000" stroke-opacity="0" stroke-width="3" fill="#e81313"/><path d="M2432.62 1927h441.95v441.95h-441.95z" stroke="#000" stroke-opacity="0" stroke-width="3" fill="#ffd9d9"/><path d="M2874.57 1927h441.95v441.95h-441.95z" stroke="#000" stroke-opacity="0" stroke-width="3" fill="#fe7070"/><path d="M3316.52 1485.05h441.95V1927h-441.95z" stroke="#000" stroke-opacity="0" stroke-width="3" fill="#a10e3a"/><path d="M3316.52 1927h441.95v441.95h-441.95z" stroke="#000" stroke-opacity="0" stroke-width="3" fill="#e81313"/><path d="M1548.72 2368.95h441.95v441.95h-441.95z" stroke="#000" stroke-opacity="0" stroke-width="3" fill="#cfe4ff"/><path d="M1990.67 2368.95h441.95v441.95h-441.95z" stroke="#000" stroke-opacity="0" stroke-width="3" fill="#cfe4ff" fill-opacity=".45"/><path d="M1548.72 2810.9h441.95v441.94h-441.95z" stroke="#000" stroke-opacity="0" stroke-width="3" fill="#6db1ff"/><path d="M1990.67 2810.9h441.95v441.94h-441.95z" stroke="#000" stroke-opacity="0" stroke-width="3" fill="#cfe4ff"/><path d="M2432.62 2368.95h441.95v441.95h-441.95z" stroke="#000" stroke-opacity="0" stroke-width="3" fill="#dfe3e8"/><path d="M2874.57 2368.95h441.95v441.95h-441.95z" stroke="#000" stroke-opacity="0" stroke-width="3" fill="#ffd9d9"/><path d="M2432.62 2810.9h441.95v441.94h-441.95z" stroke="#000" stroke-opacity="0" stroke-width="3" fill="#cfe4ff" fill-opacity=".45"/><path d="M2874.57 2810.9h441.95v441.94h-441.95z" stroke="#000" stroke-opacity="0" stroke-width="3" fill="#dfe3e8"/><path d="M3316.52 2368.95h441.95v441.95h-441.95z" stroke="#000" stroke-opacity="0" stroke-width="3" fill="#fe7070"/><path d="M3316.52 2810.9h441.95v441.94h-441.95z" stroke="#000" stroke-opacity="0" stroke-width="3" fill="#ffd9d9"/><path d="M1548.72 3252.84h441.95v441.95h-441.95z" stroke="#000" stroke-opacity="0" stroke-width="3" fill="#1071e5"/><path d="M1990.67 3252.84h441.95v441.95h-441.95z" stroke="#000" stroke-opacity="0" stroke-width="3" fill="#6db1ff"/><path d="M2432.62 3252.84h441.95v441.95h-441.95z" stroke="#000" stroke-opacity="0" stroke-width="3" fill="#cfe4ff"/><path d="M2874.57 3252.84h441.95v441.95h-441.95z" stroke="#000" stroke-opacity="0" stroke-width="3" fill="#cfe4ff" fill-opacity=".45"/><path d="M3316.52 3252.84h441.95v441.95h-441.95z" stroke="#000" stroke-opacity="0" stroke-width="3" fill="#dfe3e8"/><defs><path fill="#333" d="M24 0v-248h52V0H24" id="m"/><path fill="#333" d="M220-157c-53 9-28 100-34 157h-49v-107c1-27-5-49-29-50C55-147 81-57 75 0H25l-1-190h47c2 12-1 28 3 38 10-53 101-56 108 0 13-22 24-43 59-42 82 1 51 116 57 194h-49v-107c-1-25-5-48-29-50" id="n"/><path fill="#333" d="M135-194c53 0 70 44 70 98 0 56-19 98-73 100-31 1-45-17-59-34 3 33 2 69 2 105H25l-1-265h48c2 10 0 23 3 31 11-24 29-35 60-35zM114-30c33 0 39-31 40-66 0-38-9-64-40-64-56 0-55 130 0 130" id="o"/><path fill="#333" d="M133-34C117-15 103 5 69 4 32 3 11-16 11-54c-1-60 55-63 116-61 1-26-3-47-28-47-18 1-26 9-28 27l-52-2c7-38 36-58 82-57s74 22 75 68l1 82c-1 14 12 18 25 15v27c-30 8-71 5-69-32zm-48 3c29 0 43-24 42-57-32 0-66-3-65 30 0 17 8 27 23 27" id="p"/><path fill="#333" d="M190-63c-7 42-38 67-86 67-59 0-84-38-90-98-12-110 154-137 174-36l-49 2c-2-19-15-32-35-32-30 0-35 28-38 64-6 74 65 87 74 30" id="q"/><path fill="#333" d="M115-3C79 11 28 4 28-45v-112H4v-33h27l15-45h31v45h36v33H77v99c-1 23 16 31 38 25v30" id="r"/><g id="a"><use transform="matrix(0.1851851851851852,0,0,0.1851851851851852,0,0)" xlink:href="#m"/><use transform="matrix(0.1851851851851852,0,0,0.1851851851851852,18.51851851851852,0)" xlink:href="#n"/><use transform="matrix(0.1851851851851852,0,0,0.1851851851851852,77.77777777777779,0)" xlink:href="#o"/><use transform="matrix(0.1851851851851852,0,0,0.1851851851851852,118.33333333333334,0)" xlink:href="#p"/><use transform="matrix(0.1851851851851852,0,0,0.1851851851851852,155.37037037037038,0)" xlink:href="#q"/><use transform="matrix(0.1851851851851852,0,0,0.1851851851851852,192.40740740740742,0)" xlink:href="#r"/></g><path fill="#333" d="M24-248c93 1 206-16 204 79-1 75-69 88-152 82V0H24v-248zm52 121c47 0 100 7 100-41 0-47-54-39-100-39v80" id="s"/><path fill="#333" d="M135-150c-39-12-60 13-60 57V0H25l-1-190h47c2 13-1 29 3 40 6-28 27-53 61-41v41" id="t"/><path fill="#333" d="M110-194c64 0 96 36 96 99 0 64-35 99-97 99-61 0-95-36-95-99 0-62 34-99 96-99zm-1 164c35 0 45-28 45-65 0-40-10-65-43-65-34 0-45 26-45 65 0 36 10 65 43 65" id="u"/><path fill="#333" d="M135-194c52 0 70 43 70 98 0 56-19 99-73 100-30 1-46-15-58-35L72 0H24l1-261h50v104c11-23 29-37 60-37zM114-30c31 0 40-27 40-66 0-37-7-63-39-63s-41 28-41 65c0 36 8 64 40 64" id="v"/><path fill="#333" d="M25-224v-37h50v37H25zM25 0v-190h50V0H25" id="w"/><path fill="#333" d="M25 0v-261h50V0H25" id="x"/><path fill="#333" d="M123 10C108 53 80 86 19 72V37c35 8 53-11 59-39L3-190h52l48 148c12-52 28-100 44-148h51" id="y"/><g id="b"><use transform="matrix(0.1851851851851852,0,0,0.1851851851851852,0,0)" xlink:href="#s"/><use transform="matrix(0.1851851851851852,0,0,0.1851851851851852,44.44444444444445,0)" xlink:href="#t"/><use transform="matrix(0.1851851851851852,0,0,0.1851851851851852,70.37037037037038,0)" xlink:href="#u"/><use transform="matrix(0.1851851851851852,0,0,0.1851851851851852,110.92592592592594,0)" xlink:href="#v"/><use transform="matrix(0.1851851851851852,0,0,0.1851851851851852,151.4814814814815,0)" xlink:href="#p"/><use transform="matrix(0.1851851851851852,0,0,0.1851851851851852,188.51851851851853,0)" xlink:href="#v"/><use transform="matrix(0.1851851851851852,0,0,0.1851851851851852,229.0740740740741,0)" xlink:href="#w"/><use transform="matrix(0.1851851851851852,0,0,0.1851851851851852,247.5925925925926,0)" xlink:href="#x"/><use transform="matrix(0.1851851851851852,0,0,0.1851851851851852,266.11111111111114,0)" xlink:href="#w"/><use transform="matrix(0.1851851851851852,0,0,0.1851851851851852,284.6296296296297,0)" xlink:href="#r"/><use transform="matrix(0.1851851851851852,0,0,0.1851851851851852,306.66666666666674,0)" xlink:href="#y"/></g><path fill="#333" d="M197 0v-115H63V0H30v-248h33v105h134v-105h34V0h-34" id="z"/><path fill="#333" d="M24-231v-30h32v30H24zM24 0v-190h32V0H24" id="A"/><path fill="#333" d="M177-190C167-65 218 103 67 71c-23-6-38-20-44-43l32-5c15 47 100 32 89-28v-30C133-14 115 1 83 1 29 1 15-40 15-95c0-56 16-97 71-98 29-1 48 16 59 35 1-10 0-23 2-32h30zM94-22c36 0 50-32 50-73 0-42-14-75-50-75-39 0-46 34-46 75s6 73 46 73" id="B"/><path fill="#333" d="M106-169C34-169 62-67 57 0H25v-261h32l-1 103c12-21 28-36 61-36 89 0 53 116 60 194h-32v-121c2-32-8-49-39-48" id="C"/><path fill="#333" d="M24 0v-261h32V0H24" id="D"/><path fill="#333" d="M179-190L93 31C79 59 56 82 12 73V49c39 6 53-20 64-50L1-190h34L92-34l54-156h33" id="E"/><g id="c"><use transform="matrix(0.08641975308641976,0,0,0.08641975308641976,0,0)" xlink:href="#z"/><use transform="matrix(0.08641975308641976,0,0,0.08641975308641976,22.38271604938272,0)" xlink:href="#A"/><use transform="matrix(0.08641975308641976,0,0,0.08641975308641976,29.20987654320988,0)" xlink:href="#B"/><use transform="matrix(0.08641975308641976,0,0,0.08641975308641976,46.49382716049383,0)" xlink:href="#C"/><use transform="matrix(0.08641975308641976,0,0,0.08641975308641976,63.777777777777786,0)" xlink:href="#D"/><use transform="matrix(0.08641975308641976,0,0,0.08641975308641976,70.60493827160495,0)" xlink:href="#E"/></g><path fill="#333" d="M84 4C-5 8 30-112 23-190h32v120c0 31 7 50 39 49 72-2 45-101 50-169h31l1 190h-30c-1-10 1-25-2-33-11 22-28 36-60 37" id="F"/><path fill="#333" d="M117-194c89-4 53 116 60 194h-32v-121c0-31-8-49-39-48C34-167 62-67 57 0H25l-1-190h30c1 10-1 24 2 32 11-22 29-35 61-36" id="G"/><path fill="#333" d="M143 0L79-87 56-68V0H24v-261h32v163l83-92h37l-77 82L181 0h-38" id="H"/><path fill="#333" d="M100-194c63 0 86 42 84 106H49c0 40 14 67 53 68 26 1 43-12 49-29l28 8c-11 28-37 45-77 45C44 4 14-33 15-96c1-61 26-98 85-98zm52 81c6-60-76-77-97-28-3 7-6 17-6 28h103" id="I"/><g id="d"><use transform="matrix(0.08641975308641976,0,0,0.08641975308641976,0,0)" xlink:href="#F"/><use transform="matrix(0.08641975308641976,0,0,0.08641975308641976,17.283950617283953,0)" xlink:href="#G"/><use transform="matrix(0.08641975308641976,0,0,0.08641975308641976,34.567901234567906,0)" xlink:href="#D"/><use transform="matrix(0.08641975308641976,0,0,0.08641975308641976,41.39506172839506,0)" xlink:href="#A"/><use transform="matrix(0.08641975308641976,0,0,0.08641975308641976,48.22222222222223,0)" xlink:href="#H"/><use transform="matrix(0.08641975308641976,0,0,0.08641975308641976,63.777777777777786,0)" xlink:href="#I"/><use transform="matrix(0.08641975308641976,0,0,0.08641975308641976,81.06172839506173,0)" xlink:href="#D"/><use transform="matrix(0.08641975308641976,0,0,0.08641975308641976,87.8888888888889,0)" xlink:href="#E"/></g><path fill="#333" d="M232-93c-1 65-40 97-104 97C67 4 28-28 28-90v-158h33c8 89-33 224 67 224 102 0 64-133 71-224h33v155" id="J"/><g id="e"><use transform="matrix(0.08641975308641976,0,0,0.08641975308641976,0,0)" xlink:href="#J"/><use transform="matrix(0.08641975308641976,0,0,0.08641975308641976,22.38271604938272,0)" xlink:href="#G"/><use transform="matrix(0.08641975308641976,0,0,0.08641975308641976,39.66666666666667,0)" xlink:href="#D"/><use transform="matrix(0.08641975308641976,0,0,0.08641975308641976,46.49382716049383,0)" xlink:href="#A"/><use transform="matrix(0.08641975308641976,0,0,0.08641975308641976,53.320987654321,0)" xlink:href="#H"/><use transform="matrix(0.08641975308641976,0,0,0.08641975308641976,68.87654320987656,0)" xlink:href="#I"/><use transform="matrix(0.08641975308641976,0,0,0.08641975308641976,86.16049382716051,0)" xlink:href="#D"/><use transform="matrix(0.08641975308641976,0,0,0.08641975308641976,92.98765432098766,0)" xlink:href="#E"/></g><path fill="#333" d="M240 0l2-218c-23 76-54 145-80 218h-23L58-218 59 0H30v-248h44l77 211c21-75 51-140 76-211h43V0h-30" id="K"/><path fill="#333" d="M100-194c62-1 85 37 85 99 1 63-27 99-86 99S16-35 15-95c0-66 28-99 85-99zM99-20c44 1 53-31 53-75 0-43-8-75-51-75s-53 32-53 75 10 74 51 75" id="L"/><path fill="#333" d="M85-194c31 0 48 13 60 33l-1-100h32l1 261h-30c-2-10 0-23-3-31C134-8 116 4 85 4 32 4 16-35 15-94c0-66 23-100 70-100zm9 24c-40 0-46 34-46 75 0 40 6 74 45 74 42 0 51-32 51-76 0-42-9-74-50-73" id="M"/><path fill="#333" d="M114-163C36-179 61-72 57 0H25l-1-190h30c1 12-1 29 2 39 6-27 23-49 58-41v29" id="N"/><path fill="#333" d="M141-36C126-15 110 5 73 4 37 3 15-17 15-53c-1-64 63-63 125-63 3-35-9-54-41-54-24 1-41 7-42 31l-33-3c5-37 33-52 76-52 45 0 72 20 72 64v82c-1 20 7 32 28 27v20c-31 9-61-2-59-35zM48-53c0 20 12 33 32 33 41-3 63-29 60-74-43 2-92-5-92 41" id="O"/><path fill="#333" d="M59-47c-2 24 18 29 38 22v24C64 9 27 4 27-40v-127H5v-23h24l9-43h21v43h35v23H59v120" id="P"/><g id="f"><use transform="matrix(0.08641975308641976,0,0,0.08641975308641976,0,0)" xlink:href="#K"/><use transform="matrix(0.08641975308641976,0,0,0.08641975308641976,25.83950617283951,0)" xlink:href="#L"/><use transform="matrix(0.08641975308641976,0,0,0.08641975308641976,43.12345679012346,0)" xlink:href="#M"/><use transform="matrix(0.08641975308641976,0,0,0.08641975308641976,60.407407407407426,0)" xlink:href="#I"/><use transform="matrix(0.08641975308641976,0,0,0.08641975308641976,77.69135802469137,0)" xlink:href="#N"/><use transform="matrix(0.08641975308641976,0,0,0.08641975308641976,87.97530864197532,0)" xlink:href="#O"/><use transform="matrix(0.08641975308641976,0,0,0.08641975308641976,105.25925925925927,0)" xlink:href="#P"/><use transform="matrix(0.08641975308641976,0,0,0.08641975308641976,113.90123456790124,0)" xlink:href="#I"/></g><path fill="#333" d="M30 0v-248h33v221h125V0H30" id="Q"/><g id="g"><use transform="matrix(0.08641975308641976,0,0,0.08641975308641976,0,0)" xlink:href="#Q"/><use transform="matrix(0.08641975308641976,0,0,0.08641975308641976,17.283950617283953,0)" xlink:href="#A"/><use transform="matrix(0.08641975308641976,0,0,0.08641975308641976,24.111111111111114,0)" xlink:href="#H"/><use transform="matrix(0.08641975308641976,0,0,0.08641975308641976,39.66666666666667,0)" xlink:href="#I"/><use transform="matrix(0.08641975308641976,0,0,0.08641975308641976,56.95061728395062,0)" xlink:href="#D"/><use transform="matrix(0.08641975308641976,0,0,0.08641975308641976,63.777777777777786,0)" xlink:href="#E"/></g><g id="h"><use transform="matrix(0.08641975308641976,0,0,0.08641975308641976,0,0)" xlink:href="#D"/><use transform="matrix(0.08641975308641976,0,0,0.08641975308641976,6.8271604938271615,0)" xlink:href="#A"/><use transform="matrix(0.08641975308641976,0,0,0.08641975308641976,13.654320987654323,0)" xlink:href="#H"/><use transform="matrix(0.08641975308641976,0,0,0.08641975308641976,29.20987654320988,0)" xlink:href="#I"/><use transform="matrix(0.08641975308641976,0,0,0.08641975308641976,46.49382716049383,0)" xlink:href="#D"/><use transform="matrix(0.08641975308641976,0,0,0.08641975308641976,53.320987654321,0)" xlink:href="#E"/></g><path fill="#333" d="M127-220V0H93v-220H8v-28h204v28h-85" id="R"/><path fill="#333" d="M108 0H70L1-190h34L89-25l56-165h34" id="S"/><g id="i"><use transform="matrix(0.08641975308641976,0,0,0.08641975308641976,0,0)" xlink:href="#R"/><use transform="matrix(0.08641975308641976,0,0,0.08641975308641976,17.802469135802472,0)" xlink:href="#N"/><use transform="matrix(0.08641975308641976,0,0,0.08641975308641976,28.08641975308642,0)" xlink:href="#A"/><use transform="matrix(0.08641975308641976,0,0,0.08641975308641976,34.91358024691358,0)" xlink:href="#S"/><use transform="matrix(0.08641975308641976,0,0,0.08641975308641976,50.46913580246914,0)" xlink:href="#A"/><use transform="matrix(0.08641975308641976,0,0,0.08641975308641976,57.296296296296305,0)" xlink:href="#O"/><use transform="matrix(0.08641975308641976,0,0,0.08641975308641976,74.58024691358025,0)" xlink:href="#D"/></g><g id="j"><use transform="matrix(0.08641975308641976,0,0,0.08641975308641976,0,0)" xlink:href="#K"/><use transform="matrix(0.08641975308641976,0,0,0.08641975308641976,25.83950617283951,0)" xlink:href="#A"/><use transform="matrix(0.08641975308641976,0,0,0.08641975308641976,32.66666666666667,0)" xlink:href="#G"/><use transform="matrix(0.08641975308641976,0,0,0.08641975308641976,49.95061728395062,0)" xlink:href="#L"/><use transform="matrix(0.08641975308641976,0,0,0.08641975308641976,67.23456790123457,0)" xlink:href="#N"/></g><path fill="#333" d="M24-231v-30h32v30H24zM-9 49c24 4 33-6 33-30v-209h32V24c2 40-23 58-65 49V49" id="T"/><g id="k"><use transform="matrix(0.08641975308641976,0,0,0.08641975308641976,0,0)" xlink:href="#K"/><use transform="matrix(0.08641975308641976,0,0,0.08641975308641976,25.83950617283951,0)" xlink:href="#O"/><use transform="matrix(0.08641975308641976,0,0,0.08641975308641976,43.12345679012346,0)" xlink:href="#T"/><use transform="matrix(0.08641975308641976,0,0,0.08641975308641976,49.95061728395062,0)" xlink:href="#L"/><use transform="matrix(0.08641975308641976,0,0,0.08641975308641976,67.23456790123457,0)" xlink:href="#N"/></g><path fill="#333" d="M30 0v-248h187v28H63v79h144v27H63v87h162V0H30" id="U"/><path fill="#333" d="M141 0L90-78 38 0H4l68-98-65-92h35l48 74 47-74h35l-64 92 68 98h-35" id="V"/><path fill="#333" d="M210-169c-67 3-38 105-44 169h-31v-121c0-29-5-50-35-48C34-165 62-65 56 0H25l-1-190h30c1 10-1 24 2 32 10-44 99-50 107 0 11-21 27-35 58-36 85-2 47 119 55 194h-31v-121c0-29-5-49-35-48" id="W"/><g id="l"><use transform="matrix(0.08641975308641976,0,0,0.08641975308641976,0,0)" xlink:href="#U"/><use transform="matrix(0.08641975308641976,0,0,0.08641975308641976,20.740740740740744,0)" xlink:href="#V"/><use transform="matrix(0.08641975308641976,0,0,0.08641975308641976,36.296296296296305,0)" xlink:href="#P"/><use transform="matrix(0.08641975308641976,0,0,0.08641975308641976,44.93827160493828,0)" xlink:href="#N"/><use transform="matrix(0.08641975308641976,0,0,0.08641975308641976,55.22222222222223,0)" xlink:href="#I"/><use transform="matrix(0.08641975308641976,0,0,0.08641975308641976,72.50617283950618,0)" xlink:href="#W"/><use transform="matrix(0.08641975308641976,0,0,0.08641975308641976,98.34567901234568,0)" xlink:href="#I"/></g></defs></g></svg>